# xmcd CD database file
# Copyright (C) 1993-1998 Ti Kan
#
# Track frame offsets:
#  150
#  21170
#  35982
#  57980
#  81490
#  100482
#  120920
#  139520
#  163657
#  172637
#  196202
#  225905
#  253397
#  273315
#  300550
#
# Disc length: 4325 seconds
#
# Revision: 1
# Processed by: cddbd v1.4b41PL1 Copyright (c) Steve Scherf et al.
# Submitted via: CDWizzard Release:4.60
#
DISCID=c410e30f
DTITLE=Freddie James - Come into the jungle
DYEAR=1900
DGENRE=
TTITLE0=Come into the jungle
TTITLE1=Hide your love
TTITLE2=Watching you
TTITLE3=Good lovin
TTITLE4=Tell me
TTITLE5=Pain
TTITLE6=You're no good
TTITLE7=It's over
TTITLE8=Tell me (interlude)
TTITLE9=Never gonna give you up
TTITLE10=Come get my love
TTITLE11=I wanna make love to you
TTITLE12=I can't get enought of your love
TTITLE13=City of lust
TTITLE14=Come into the jungle
EXTD=
EXTT0=
EXTT1=
EXTT2=
EXTT3=
EXTT4=
EXTT5=
EXTT6=
EXTT7=
EXTT8=
EXTT9=
EXTT10=
EXTT11=
EXTT12=
EXTT13=
EXTT14=
PLAYORDER=
